<?xml version="1.0" encoding="utf-8"?>
<!-- Generator: Adobe Illustrator 15.1.0, SVG Export Plug-In . SVG Version: 6.00 Build 0)  -->
<!DOCTYPE svg PUBLIC "-//W3C//DTD SVG 1.1//EN" "http://www.w3.org/Graphics/SVG/1.1/DTD/svg11.dtd">
<svg version="1.1" id="facebook" xmlns="http://www.w3.org/2000/svg" xmlns:xlink="http://www.w3.org/1999/xlink" x="0px" y="0px"
	 width="20px" height="20px" viewBox="-0.239 0.355 20 20" style="enable-background:new -0.239 0.355 20 20;" xml:space="preserve"
	>
<style type="text/css">
<![CDATA[
	.st0{fill:#666666;}
]]>
</style>
<a xlink:href="https://www.facebook.com/ryan.bowers.169" >
	<path id="FacebookIcon" class="st0" d="M19.762,3.688c0-1.751-1.581-3.333-3.334-3.333H3.094c-1.752,0-3.333,1.582-3.333,3.333
		v13.333c0,1.75,1.581,3.334,3.333,3.334h6.667v-7.557H7.317V9.466h2.444V8.167c0-2.24,1.682-4.258,3.75-4.258h2.693v3.334h-2.692
		c-0.295,0-0.639,0.357-0.639,0.895v1.328h3.334v3.333h-3.334v7.557h3.555c1.753,0,3.334-1.584,3.334-3.334V3.688z"/>
</a>
</svg>
