<svg version="1.1" id="github" xmlns="http://www.w3.org/2000/svg" xmlns:xlink="http://www.w3.org/1999/xlink" x="0px" y="0px"
 width="20px" height="19.507px" viewBox="0.153 -0.154 20 19.507" enable-background="new 0.153 -0.154 20 19.507"
xml:space="preserve">
	 
<defs>
<style type="text/css">
<![CDATA[ 

.st0{fill:#E6E7E8;
-webkit-transition: .3s ease;
-moz-transition: .3s ease;
 -o-transition: .3s ease;
transition: .3s ease;
}

#github{
cursor:pointer;
}

#github:hover .st0{
fill:#00bcd4;
}

]]> 

</style>
</defs>


<a xlink:href="http://www.bowsiedesign.com/website/github.html" target="_blank">
<path id="githubIcon" class="st0" d="M10.153-0.154c-5.522,0-10,4.478-10,10c0,4.417,2.864,8.166,6.839,9.489
	c0.499,0.092,0.683-0.217,0.683-0.482c0-0.237-0.01-0.867-0.015-1.701c-2.782,0.604-3.368-1.342-3.368-1.342
	c-0.455-1.153-1.11-1.461-1.11-1.461c-0.91-0.62,0.068-0.607,0.068-0.607c1.003,0.07,1.532,1.03,1.532,1.03
	c0.891,1.527,2.339,1.088,2.91,0.831c0.091-0.645,0.349-1.087,0.636-1.337c-2.22-0.253-4.555-1.108-4.555-4.942
	c0-1.092,0.389-1.984,1.03-2.684C4.7,6.386,4.357,5.371,4.899,3.993c0,0,0.839-0.269,2.75,1.025
	c0.798-0.222,1.653-0.333,2.504-0.336C11,4.686,11.857,4.798,12.656,5.019c1.908-1.294,2.747-1.025,2.747-1.025
	c0.546,1.377,0.203,2.393,0.101,2.646c0.64,0.699,1.029,1.593,1.029,2.684c0,3.841-2.339,4.687-4.566,4.935
	c0.359,0.309,0.681,0.918,0.681,1.852c0,1.337-0.014,2.416-0.014,2.745c0,0.267,0.18,0.576,0.687,0.481
	c3.97-1.326,6.832-5.07,6.832-9.489C20.15,4.324,15.677-0.154,10.153-0.154z"/>
	
</a>
Sorry, your browser does not support inline SVG.
</svg>
