<?xml version="1.0" encoding="utf-8"?>
<!-- Generator: Adobe Illustrator 15.1.0, SVG Export Plug-In . SVG Version: 6.00 Build 0)  -->
<!DOCTYPE svg PUBLIC "-//W3C//DTD SVG 1.1//EN" "http://www.w3.org/Graphics/SVG/1.1/DTD/svg11.dtd">
<svg version="1.1" id="twitter" xmlns="http://www.w3.org/2000/svg" xmlns:xlink="http://www.w3.org/1999/xlink" x="0px" y="0px"
	 width="20px" height="13.778px" viewBox="2.451 3.48 20 13.778" style="enable-background:new 2.451 3.48 20 13.778;"
	 xml:space="preserve">
<style type="text/css">
<![CDATA[
	.st0{fill:#666666;}
]]>
</style>
<a xlink:href="https://twitter.com/bowsielad" >
	<path id="TwitterIcon" class="st0" d="M20.187,9.605c1.122-0.093,1.884-0.603,2.176-1.296c-0.403,0.249-1.662,0.52-2.356,0.262
		c-0.033-0.163-0.072-0.318-0.11-0.459c-0.528-1.942-2.342-3.509-4.239-3.32c0.154-0.062,0.308-0.12,0.465-0.171
		c0.208-0.075,1.435-0.275,1.241-0.708c-0.161-0.38-1.66,0.288-1.942,0.375c0.373-0.141,0.989-0.38,1.054-0.809
		c-0.569,0.079-1.129,0.348-1.562,0.74c0.158-0.168,0.275-0.372,0.3-0.594c-1.522,0.973-2.411,2.932-3.13,4.833
		c-0.565-0.547-1.065-0.978-1.515-1.218C9.306,6.565,7.799,5.86,5.435,4.982C5.361,5.766,5.822,6.804,7.146,7.497
		C6.859,7.459,6.334,7.544,5.914,7.645c0.171,0.897,0.729,1.636,2.24,1.993c-0.69,0.045-1.048,0.204-1.37,0.541
		c0.315,0.624,1.082,1.357,2.462,1.208c-1.534,0.661-0.625,1.886,0.624,1.703c-2.131,2.2-5.49,2.04-7.419,0.198
		c5.036,6.862,15.982,4.059,17.613-2.552c1.223,0.01,1.942-0.423,2.387-0.902C21.749,9.953,20.727,9.831,20.187,9.605z"/>
</a>
</svg>
